<svg xmlns="http://www.w3.org/2000/svg" viewBox="0 0 32 32" width="32" height="32">
  <path d="M11 22c-1.2 1 .3 2 2.2 2.3 4 .7 8.6.4 11.6-1.1 0 0 1 .6-1 1.3-3.8 1.9-13.4 2.1-16.3 0-2.4-1.8.9-4.4 1.5-4.5z" fill="#EA2D2E"/>
  <path d="M14.6 19.6c-1.5 1 1 2 3.6 1.5 3-.6 4.4-2 4.4-2s.9.6-.2 1.2c-2.3 1.4-9.6 1.8-11.5.2-1.7-1.4 1.5-2.7 3.7-.9z" fill="#EA2D2E"/>
  <path d="M17.4 14.4c1.7 2-.5 3.7-.5 3.7s4.7-2.4 2.5-5.5c-2-3-3.6-4.4 4.8-9.6 0 0-13.1 3.3-8.8 8.9 1.6 2.1 2 .3 2 .3z" fill="#EA2D2E"/>
  <path d="M22.7 24.6c3.9-2 2.1-4 .8-3.7-.6.1-.9.2-.9.2s.2-.4.7-.5c2-.7 3.5 1.2-.8 4.2 0 0 .2-.1.2-.2z" fill="#EA2D2E"/>
</svg>
